<svg width="25" height="25" viewBox="0 0 25 25" fill="none" xmlns="http://www.w3.org/2000/svg">
<path d="M9.53055 25C7.71073 25 5.99442 24.4194 4.56717 23.3208C4.30057 23.1157 4.04422 22.8916 3.80496 22.6553C2.13895 21.0088 1.30057 18.8159 1.44461 16.4805C1.5535 14.7153 2.26444 13.0137 3.44754 11.689C5.01444 9.93457 7.17459 8.96826 9.53104 8.96826C9.93582 8.96826 10.3445 8.99853 10.7469 9.05811L11.3719 9.15088V14.6973L10.4095 14.3794C10.1292 14.2866 9.83768 14.2397 9.54276 14.2397C8.79764 14.2397 8.09989 14.5317 7.57791 15.0615C7.05838 15.5889 6.7786 16.2861 6.78934 17.0259C6.8035 17.9795 7.30594 18.8437 8.13309 19.3389C8.51395 19.5664 8.94754 19.6997 9.38797 19.7241C9.73563 19.7432 10.0789 19.6978 10.409 19.5889C11.5374 19.2163 12.2957 18.1694 12.2957 16.9844L12.3006 11.2324V0H17.6014L17.6077 0.725586C17.6106 1.0542 17.6443 1.38281 17.7078 1.70117C17.9568 2.95312 18.659 4.06885 19.6848 4.84229C20.5955 5.5293 21.6824 5.89209 22.8269 5.89209C22.8538 5.89209 22.8538 5.89209 23.0984 5.90918L23.7796 5.95703V10.4492V11.1816L23.5354 11.1812H23.0486C23.0447 11.1812 23.0408 11.1812 23.0364 11.1812H22.8025C22.8015 11.1812 22.8001 11.1812 22.7986 11.1812C21.387 11.1812 20.0642 10.9121 18.7532 10.3589C18.3626 10.1938 17.9822 10.0054 17.615 9.79492L17.6316 17.0122C17.6228 19.147 16.7791 21.1494 15.2561 22.6548C14.0203 23.876 12.4607 24.6563 10.7459 24.9102C10.346 24.9697 9.93729 25 9.53055 25ZM9.53055 10.4331C7.59744 10.4331 5.82498 11.2256 4.53983 12.6646C3.57498 13.7451 2.99491 15.1323 2.90604 16.5703C2.78885 18.4771 3.47342 20.2681 4.83426 21.6128C5.03104 21.8071 5.24149 21.9912 5.46024 22.1597C6.62918 23.0596 8.0369 23.5352 9.53055 23.5352C9.86551 23.5352 10.2019 23.5103 10.5315 23.4614C11.9363 23.2534 13.2141 22.6143 14.2268 21.6133C15.471 20.3838 16.1599 18.7495 16.1673 17.0112L16.1443 6.93359L17.3274 7.84619C17.9383 8.31738 18.6101 8.70898 19.3235 9.01025C20.2986 9.42187 21.2815 9.65039 22.3142 9.70459V7.33887C21.0379 7.24316 19.8323 6.78955 18.8025 6.0127C17.489 5.02246 16.5901 3.59277 16.2708 1.98779C16.2366 1.81543 16.2088 1.64111 16.1883 1.46533H13.7649V11.2329L13.76 16.9849C13.76 18.8027 12.5979 20.4082 10.868 20.9795C10.3636 21.146 9.83865 21.2153 9.3074 21.1865C8.63065 21.1494 7.96463 20.9448 7.38065 20.5957C6.11453 19.8384 5.34549 18.5117 5.32401 17.0474C5.30741 15.9126 5.7366 14.8423 6.53348 14.0332C7.3328 13.2217 8.40115 12.7749 9.54178 12.7749C9.66385 12.7749 9.78494 12.7803 9.90604 12.7905V10.4434C9.78104 10.4365 9.65555 10.4331 9.53055 10.4331Z" fill="#FFFAE6"/>
</svg>
